<svg width="43" height="83" viewBox="0 0 43 83" fill="none" xmlns="http://www.w3.org/2000/svg">
<path fill-rule="evenodd" clip-rule="evenodd" d="M20.8601 40.4185C17.7251 40.3815 15.1551 37.8115 15.1181 34.6745C15.0821 31.5395 17.5951 29.0275 20.7301 29.0625C23.8661 29.0975 26.4371 31.6695 26.4731 34.8055C26.5101 37.9425 23.9971 40.4545 20.8601 40.4185M33.5811 52.1205C33.5811 52.1205 38.5671 16.2735 22.0611 2.84945L21.1681 0.397451C20.9781 -0.123549 20.2451 -0.135549 20.0391 0.380451L19.0671 2.80845C2.85406 15.8515 8.55106 51.8335 8.55106 51.8335C-3.98294 61.6835 -0.933935 57.9924 6.21906 75.3644C7.58206 78.6814 9.97206 77.8994 11.0531 75.5054C12.1331 73.1144 14.5191 67.8325 14.5191 67.8325H15.6521L20.0311 81.8234C20.4241 83.0804 22.2031 83.0804 22.5971 81.8234L26.9751 67.8325H28.0151C28.0151 67.8325 30.6051 73.3265 31.7411 75.7445C32.8771 78.1635 35.2841 78.9994 36.5731 75.7134C43.3281 58.5014 46.3441 62.2605 33.5811 52.1205" fill="#F64060"/>
</svg>
